<?xml version="1.0" ?><svg enable-background="new 0 0 128 128" id="Слой_1" version="1.1" viewBox="0 0 128 128" xml:space="preserve" xmlns="http://www.w3.org/2000/svg" xmlns:xlink="http://www.w3.org/1999/xlink"><g><g><path d="M71.7294922,82.7397461c-0.6767578,0-1.3369141-0.34375-1.7128906-0.965332    c-0.5722656-0.9448242-0.2695312-2.1743164,0.6757812-2.7460938L95.5302734,64L70.6923828,48.9716797    c-0.9453125-0.5717773-1.2480469-1.8012695-0.6757812-2.7460938c0.5712891-0.9448242,1.8017578-1.2480469,2.7460938-0.6757812    l27.6660156,16.7392578c0.5986328,0.3623047,0.9648438,1.0112305,0.9648438,1.7109375s-0.3662109,1.3486328-0.9648438,1.7109375    L72.7626953,82.4501953C72.4394531,82.6464844,72.0820312,82.7397461,71.7294922,82.7397461z" fill="#3399CC"/></g><g><path d="M46.6098633,65.9697266c-0.5302734,0-1.0498047-0.2099609-1.4199219-0.5898438    c-0.3701172-0.3701172-0.5800781-0.8901367-0.5800781-1.4101562c0-0.5297852,0.2099609-1.0400391,0.5800781-1.4199219    c0.75-0.7397461,2.0800781-0.7397461,2.8300781,0c0.3696289,0.3798828,0.5898438,0.8901367,0.5898438,1.4199219    c0,0.5200195-0.2202148,1.0400391-0.5898438,1.4101562C47.6499023,65.7597656,47.1298828,65.9697266,46.6098633,65.9697266z" fill="#3399CC"/></g><g><path d="M40.6098633,65.9697266c-0.5302734,0-1.0498047-0.2099609-1.4199219-0.5898438    c-0.3701172-0.3701172-0.5800781-0.8901367-0.5800781-1.4101562c0-0.5297852,0.2099609-1.0400391,0.5800781-1.409668    c0.75-0.75,2.0800781-0.75,2.8300781-0.0102539c0.3696289,0.3798828,0.5898438,0.8901367,0.5898438,1.4199219    c0,0.5200195-0.2202148,1.0400391-0.5898438,1.4101562C41.6499023,65.7597656,41.1298828,65.9697266,40.6098633,65.9697266z" fill="#3399CC"/></g><g><path d="M34.6098633,65.9697266c-0.5302734,0-1.0498047-0.2099609-1.4199219-0.5898438    c-0.3701172-0.3701172-0.5800781-0.8901367-0.5800781-1.4101562c0-0.5297852,0.2099609-1.0400391,0.5800781-1.4199219    c0.75-0.7397461,2.0898438-0.7397461,2.8300781,0c0.3696289,0.3798828,0.5898438,0.8901367,0.5898438,1.4199219    c0,0.5200195-0.2202148,1.0400391-0.5898438,1.4101562C35.6499023,65.7597656,35.1298828,65.9697266,34.6098633,65.9697266z" fill="#3399CC"/></g><g><path d="M28.6098633,65.9697266c-0.5302734,0-1.0400391-0.2099609-1.4199219-0.5898438    C26.8198242,65.0097656,26.6098633,64.5,26.6098633,63.9697266c0-0.5297852,0.2099609-1.0400391,0.5800781-1.4199219    c0.75-0.7397461,2.0898438-0.7397461,2.8300781,0c0.3696289,0.3798828,0.5898438,0.8901367,0.5898438,1.4199219    c0,0.5302734-0.2202148,1.0400391-0.5898438,1.4101562C29.6499023,65.7597656,29.1298828,65.9697266,28.6098633,65.9697266z" fill="#3399CC"/></g><g><path d="M95,66H52c-1.1044922,0-2-0.8955078-2-2s0.8955078-2,2-2h43c1.1044922,0,2,0.8955078,2,2    S96.1044922,66,95,66z" fill="#3399CC"/></g></g></svg>